<?xml version="1.0" encoding="UTF-8" standalone="no"?>
<!-- Created with Inkscape (http://www.inkscape.org/) -->

<svg
   xmlns:dc="http://purl.org/dc/elements/1.1/"
   xmlns:cc="http://creativecommons.org/ns#"
   xmlns:rdf="http://www.w3.org/1999/02/22-rdf-syntax-ns#"
   xmlns:svg="http://www.w3.org/2000/svg"
   xmlns="http://www.w3.org/2000/svg"
   xmlns:sodipodi="http://sodipodi.sourceforge.net/DTD/sodipodi-0.dtd"
   xmlns:inkscape="http://www.inkscape.org/namespaces/inkscape"
   width="1080"
   height="480"
   viewBox="0 0 1080 480.00001"
   id="svg2"
   version="1.1"
   inkscape:version="0.91 r13725"
   sodipodi:docname="title-en_US.svg"
   inkscape:export-filename="C:\Users\rsaki\AndroidStudioProjects\Charades\app\src\main\res\drawable\title.png"
   inkscape:export-xdpi="90"
   inkscape:export-ydpi="90">
  <sodipodi:namedview
     id="base"
     pagecolor="#039be5"
     bordercolor="#666666"
     borderopacity="1.0"
     inkscape:pageopacity="0"
     inkscape:pageshadow="2"
     inkscape:zoom="0.98994949"
     inkscape:cx="604.22849"
     inkscape:cy="340.42437"
     inkscape:document-units="px"
     inkscape:current-layer="layer1"
     showgrid="true"
     units="px"
     inkscape:window-width="2560"
     inkscape:window-height="1377"
     inkscape:window-x="2728"
     inkscape:window-y="-8"
     inkscape:window-maximized="1">
    <inkscape:grid
       id="grid4684"
       type="xygrid" />
  </sodipodi:namedview>
  <defs
     id="defs4" />
  <metadata
     id="metadata7">
    <rdf:RDF>
      <cc:Work
         rdf:about="">
        <dc:format>image/svg+xml</dc:format>
        <dc:type
           rdf:resource="http://purl.org/dc/dcmitype/StillImage" />
        <dc:title></dc:title>
      </cc:Work>
    </rdf:RDF>
  </metadata>
  <g
     transform="translate(0,-572.36216)"
     id="layer1"
     inkscape:groupmode="layer"
     inkscape:label="Layer 1">
    <g
       style="font-style:normal;font-weight:normal;font-size:40px;line-height:125%;font-family:sans-serif;letter-spacing:20px;word-spacing:0px;opacity:0.5;fill:#000000;fill-opacity:1;stroke:none;stroke-width:1px;stroke-linecap:butt;stroke-linejoin:miter;stroke-opacity:1"
       id="text5559">
      <g
         id="g5920"
         style="fill:#000000">
        <g
           style="font-style:normal;font-variant:normal;font-weight:normal;font-stretch:normal;font-size:180px;font-family:'Bauhaus 93';-inkscape-font-specification:'Bauhaus 93, ';text-align:center;letter-spacing:15px;text-anchor:middle;fill:#000000"
           id="g5922">
          <path
             d="m 654.4043,639.87683 c 0,11.19141 0,22.38281 0,33.57422 l 35.35534,35.35534 c 0,-11.19141 0,-22.38281 0,-33.57422 z"
             id="path5924"
             style="fill:#000000"
             inkscape:connector-curvature="0" />
          <path
             d="m 654.4043,673.45105 c 4.92187,0 9.84375,0 14.76562,0 l 35.35534,35.35534 c -4.92187,0 -9.84375,0 -14.76562,0 z"
             id="path5926"
             style="fill:#000000"
             inkscape:connector-curvature="0" />
          <path
             d="m 669.16992,673.45105 c 0,11.57227 0,23.14453 0,34.7168 l 35.35534,35.35534 c 0,-11.57227 0,-23.14453 0,-34.7168 z"
             id="path5928"
             style="fill:#000000"
             inkscape:connector-curvature="0" />
          <path
             d="m 669.16992,708.16785 c -4.92187,0 -9.84375,0 -14.76562,0 l 35.35534,35.35534 c 4.92187,0 9.84375,0 14.76562,0 z"
             id="path5930"
             style="fill:#000000"
             inkscape:connector-curvature="0" />
          <path
             d="m 654.4043,708.16785 c 0.16407,5.0509 0.13491,11.25265 3.88427,15.002 l 35.35534,35.35534 c -3.74936,-3.74936 -3.7202,-9.9511 -3.88427,-15.002 z"
             id="path5932"
             style="fill:#000000"
             inkscape:connector-curvature="0" />
          <path
             d="m 658.28857,723.16985 c 0.41201,0.41201 0.86965,0.79441 1.37818,1.14241 l 35.35534,35.35534 c -0.50854,-0.348 -0.96617,-0.7304 -1.37818,-1.14241 z"
             id="path5934"
             style="fill:#000000"
             inkscape:connector-curvature="0" />
          <path
             d="m 659.66675,724.31226 c 0.042,0.0467 0.085,0.0921 0.12903,0.13613 l 35.35534,35.35534 c -0.044,-0.044 -0.0871,-0.0894 -0.12903,-0.13613 z"
             id="path5936"
             style="fill:#000000"
             inkscape:connector-curvature="0" />
          <path
             d="m 659.79578,724.44839 c 2.41631,2.4163 7.89911,0.86213 9.63653,2.61934 l 35.35534,35.35534 c -1.73742,-1.75721 -7.22023,-0.20304 -9.63653,-2.61934 z"
             id="path5938"
             style="fill:#000000"
             inkscape:connector-curvature="0" />
          <path
             d="m 669.43231,727.06773 c 0.14504,0.14669 0.26398,0.31646 0.35285,0.51354 l 35.35534,35.35534 c -0.0889,-0.19708 -0.20781,-0.36685 -0.35285,-0.51354 z"
             id="path5940"
             style="fill:#000000"
             inkscape:connector-curvature="0" />
          <path
             d="m 669.78516,727.58127 c 0,11.16557 0,22.33115 0,33.49673 l 35.35534,35.35534 c 0,-11.16558 0,-22.33116 0,-33.49673 z"
             id="path5942"
             style="fill:#000000"
             inkscape:connector-curvature="0" />
          <path
             d="m 669.78516,761.078 c -12.97217,1.10554 -26.44214,-3.78926 -35.61597,-12.96309 l 35.35534,35.35534 c 9.17383,9.17383 22.6438,14.06863 35.61597,12.96309 z"
             id="path5944"
             style="fill:#000000"
             inkscape:connector-curvature="0" />
          <path
             d="m 634.16919,748.11491 c -3.30754,-3.30755 -6.05663,-7.17132 -8.02259,-11.51066 l 35.35534,35.35534 c 1.96596,4.33934 4.71505,8.20311 8.02259,11.51066 z"
             id="path5946"
             style="fill:#000000"
             inkscape:connector-curvature="0" />
          <path
             d="m 626.1466,736.60425 c -5.76481,-12.35493 -4.45506,-26.14365 -4.6134,-39.36487 l 35.35534,35.35534 c 0.15834,13.22122 -1.15141,27.00994 4.6134,39.36487 z"
             id="path5948"
             style="fill:#000000"
             inkscape:connector-curvature="0" />
          <path
             d="m 621.5332,697.23938 c 0,-19.12085 0,-38.24169 0,-57.36254 l 35.35534,35.35534 c 0,19.12085 0,38.24169 0,57.36254 z"
             id="path5950"
             style="fill:#000000"
             inkscape:connector-curvature="0" />
          <path
             d="m 621.5332,639.87684 c 10.95703,-10e-6 21.91409,10e-6 32.8711,-10e-6 l 35.35534,35.35534 c -10.95701,2e-5 -21.91407,0 -32.8711,10e-6 z"
             id="path5952"
             style="fill:#000000"
             inkscape:connector-curvature="0" />
        </g>
        <path
           style="font-style:normal;font-variant:normal;font-weight:normal;font-stretch:normal;font-size:180px;font-family:'Bauhaus 93';-inkscape-font-specification:'Bauhaus 93, ';text-align:center;letter-spacing:15px;text-anchor:middle;fill:#000000"
           d="m 654.4043,639.87683 c 0,11.19141 0,22.38281 0,33.57422 4.92187,0 9.84375,0 14.76562,0 0,11.57227 0,23.14453 0,34.7168 -4.92187,0 -9.84375,0 -14.76562,0 0.1821,5.60594 0.12617,12.62954 5.26245,16.14441 2.53641,2.82419 8.94552,0.66807 10.11841,3.26901 0,11.16557 0,22.33115 0,33.49673 -17.64917,1.50413 -36.21981,-8.0988 -43.63856,-24.47375 -5.76481,-12.35493 -4.45506,-26.14365 -4.6134,-39.36487 0,-19.12085 0,-38.24169 0,-57.36254 10.95703,-10e-6 21.91409,10e-6 32.8711,-10e-6 z"
           id="path5572"
           inkscape:connector-curvature="0" />
      </g>
      <g
         id="g5955"
         style="fill:#000000">
        <g
           style="font-style:normal;font-variant:normal;font-weight:normal;font-stretch:normal;font-size:180px;font-family:'Bauhaus 93';-inkscape-font-specification:'Bauhaus 93, ';text-align:center;letter-spacing:15px;text-anchor:middle;fill:#000000"
           id="g5957">
          <path
             d="m 600.55664,671.34167 c 0,11.71875 0,23.4375 0,35.15625 l 35.35534,35.35534 c 0,-11.71875 0,-23.4375 0,-35.15625 z"
             id="path5959"
             style="fill:#000000"
             inkscape:connector-curvature="0" />
          <path
             d="m 600.55664,706.49792 c -3.80827,-2.4449 -9.75712,-2.99537 -12.67496,1.07907 l 35.35534,35.35534 c 2.91784,-4.07444 8.86669,-3.52397 12.67496,-1.07907 z"
             id="path5961"
             style="fill:#000000"
             inkscape:connector-curvature="0" />
          <path
             d="m 587.88168,707.57699 c -3.46794,5.27144 -2.31636,11.83267 -2.53012,17.80825 l 35.35534,35.35534 c 0.21376,-5.97558 -0.93782,-12.53681 2.53012,-17.80825 z"
             id="path5963"
             style="fill:#000000"
             inkscape:connector-curvature="0" />
          <path
             d="m 585.35156,725.38524 c 0,11.48743 0,22.97486 0,34.46229 l 35.35534,35.35534 c 0,-11.48743 0,-22.97486 0,-34.46229 z"
             id="path5965"
             style="fill:#000000"
             inkscape:connector-curvature="0" />
          <path
             d="m 585.35156,759.84753 c -10.95703,0 -21.91406,0 -32.87109,0 l 35.35534,35.35534 c 10.95703,0 21.91406,0 32.87109,0 z"
             id="path5967"
             style="fill:#000000"
             inkscape:connector-curvature="0" />
          <path
             d="m 552.48047,759.84753 c 0.0392,-16.93957 -0.0803,-33.88143 0.0633,-50.81949 l 35.35534,35.35534 c -0.1436,16.93806 -0.0241,33.87992 -0.0633,50.81949 z"
             id="path5969"
             style="fill:#000000"
             inkscape:connector-curvature="0" />
          <path
             d="m 552.54377,709.02804 c 0.32163,-11.28803 4.53818,-22.88183 13.36197,-30.27984 l 35.35534,35.35534 c -8.82379,7.39801 -13.04034,18.99181 -13.36197,30.27984 z"
             id="path5971"
             style="fill:#000000"
             inkscape:connector-curvature="0" />
          <path
             d="m 565.90574,678.7482 c 9.39993,-8.27561 22.76264,-9.64394 34.6509,-7.40653 l 35.35534,35.35534 c -11.88826,-2.23741 -25.25097,-0.86908 -34.6509,7.40653 z"
             id="path5973"
             style="fill:#000000"
             inkscape:connector-curvature="0" />
        </g>
        <path
           style="font-style:normal;font-variant:normal;font-weight:normal;font-stretch:normal;font-size:180px;font-family:'Bauhaus 93';-inkscape-font-specification:'Bauhaus 93, ';text-align:center;letter-spacing:15px;text-anchor:middle;fill:#000000"
           d="m 600.55664,671.34167 c 0,11.71875 0,23.4375 0,35.15625 -3.80827,-2.4449 -9.75712,-2.99537 -12.67496,1.07907 -3.46794,5.27144 -2.31636,11.83267 -2.53012,17.80825 0,11.48743 0,22.97486 0,34.46229 -10.95703,0 -21.91406,0 -32.87109,0 0.0392,-16.93957 -0.0803,-33.88143 0.0633,-50.81949 0.32163,-11.28803 4.53818,-22.88183 13.36197,-30.27984 9.39993,-8.27561 22.76264,-9.64394 34.6509,-7.40653 z"
           id="path5570"
           inkscape:connector-curvature="0" />
      </g>
      <g
         id="g5976"
         style="fill:#000000">
        <g
           style="font-style:normal;font-variant:normal;font-weight:normal;font-stretch:normal;font-size:180px;font-family:'Bauhaus 93';-inkscape-font-specification:'Bauhaus 93, ';text-align:center;letter-spacing:15px;text-anchor:middle;fill:#000000"
           id="g5978">
          <path
             d="m 356.89453,718.36316 c 0,-10.48828 0,-20.97656 0,-31.46484 l 35.35534,35.35534 c 0,10.48828 0,20.97656 0,31.46484 z"
             id="path5980"
             style="fill:#000000"
             inkscape:connector-curvature="0" />
          <path
             d="m 356.89453,686.89832 c 5.41254,0.63037 11.9056,-2.96355 10.77828,-9.17702 l 35.35534,35.35534 c 1.12732,6.21347 -5.36574,9.80739 -10.77828,9.17702 z"
             id="path5982"
             style="fill:#000000"
             inkscape:connector-curvature="0" />
          <path
             d="m 367.67281,677.7213 c 0.0262,-1.83669 -0.64762,-3.29329 -1.72822,-4.3739 l 35.35533,35.35534 c 1.08061,1.08061 1.75443,2.5372 1.72823,4.3739 z"
             id="path5984"
             style="fill:#000000"
             inkscape:connector-curvature="0" />
          <path
             d="m 365.94459,673.3474 c -2.43699,-2.43699 -6.94285,-2.9617 -10.15418,-1.62121 l 35.35534,35.35534 c 3.21132,-1.34049 7.71719,-0.81578 10.15417,1.62121 z"
             id="path5986"
             style="fill:#000000"
             inkscape:connector-curvature="0" />
          <path
             d="m 355.79041,671.72619 c -5.47636,2.49821 -4.64611,9.23656 -4.69666,14.27407 l 35.35534,35.35534 c 0.0505,-5.03751 -0.7797,-11.77586 4.69666,-14.27407 z"
             id="path5988"
             style="fill:#000000"
             inkscape:connector-curvature="0" />
          <path
             d="m 351.09375,686.00026 c 0,24.61576 0,49.23151 0,73.84727 l 35.35534,35.35534 c 0,-24.61576 0,-49.23151 0,-73.84727 z"
             id="path5990"
             style="fill:#000000"
             inkscape:connector-curvature="0" />
          <path
             d="m 351.09375,759.84753 c -11.89453,0 -23.78906,0 -35.68359,0 l 35.35534,35.35534 c 11.89453,0 23.78906,0 35.68359,0 z"
             id="path5992"
             style="fill:#000000"
             inkscape:connector-curvature="0" />
          <path
             d="m 315.41016,759.84753 c 0.0508,-26.30279 -0.10344,-52.60822 0.0803,-78.9093 l 35.35534,35.35534 c -0.18374,26.30108 -0.0295,52.60651 -0.0803,78.9093 z"
             id="path5994"
             style="fill:#000000"
             inkscape:connector-curvature="0" />
          <path
             d="m 315.49046,680.93823 c 0.11208,-10.73882 3.28311,-21.76498 11.00623,-29.54704 l 35.35534,35.35534 c -7.72312,7.78206 -10.89415,18.80822 -11.00623,29.54704 z"
             id="path5996"
             style="fill:#000000"
             inkscape:connector-curvature="0" />
          <path
             d="m 326.49669,651.39119 c 15.61744,-16.4974 44.24145,-19.92955 62.10022,-5.08186 l 35.35534,35.35534 c -17.85877,-14.84769 -46.48278,-11.41554 -62.10022,5.08186 z"
             id="path5998"
             style="fill:#000000"
             inkscape:connector-curvature="0" />
          <path
             d="m 388.59691,646.30933 c 1.24539,0.97388 2.42408,2.01985 3.53343,3.1292 l 35.35534,35.35534 c -1.10935,-1.10935 -2.28804,-2.15533 -3.53343,-3.1292 z"
             id="path6000"
             style="fill:#000000"
             inkscape:connector-curvature="0" />
          <path
             d="m 392.13034,649.43853 c 8.68168,8.68168 13.11645,21.24465 12.0391,33.50642 l 35.35534,35.35534 c 1.07735,-12.26177 -3.35742,-24.82474 -12.0391,-33.50642 z"
             id="path6002"
             style="fill:#000000"
             inkscape:connector-curvature="0" />
          <path
             d="m 404.16944,682.94495 c -0.4488,14.39848 -9.67928,28.79086 -23.85209,32.97925 l 35.35534,35.35534 c 14.17281,-4.18839 23.40329,-18.58077 23.85209,-32.97925 z"
             id="path6004"
             style="fill:#000000"
             inkscape:connector-curvature="0" />
          <path
             d="m 380.31735,715.9242 c -7.54671,2.52083 -15.5523,2.6784 -23.42286,2.43896 l 35.35534,35.35534 c 7.87056,0.23944 15.87615,0.0819 23.42286,-2.43896 z"
             id="path6006"
             style="fill:#000000"
             inkscape:connector-curvature="0" />
        </g>
        <path
           style="font-style:normal;font-variant:normal;font-weight:normal;font-stretch:normal;font-size:180px;font-family:'Bauhaus 93';-inkscape-font-specification:'Bauhaus 93, ';text-align:center;letter-spacing:15px;text-anchor:middle;fill:#000000"
           d="m 356.89453,718.36316 c 0,-10.48828 0,-20.97656 0,-31.46484 5.41254,0.63037 11.9056,-2.96355 10.77828,-9.17702 0.0853,-5.97881 -7.24711,-7.93 -11.8824,-5.99511 -5.47636,2.49821 -4.64611,9.23656 -4.69666,14.27407 0,24.61576 0,49.23151 0,73.84727 -11.89453,0 -23.78906,0 -35.68359,0 0.0508,-26.30279 -0.10344,-52.60822 0.0803,-78.9093 0.11208,-10.73882 3.28311,-21.76498 11.00623,-29.54704 15.61744,-16.4974 44.24145,-19.92955 62.10022,-5.08186 10.99176,8.59536 16.78754,22.80704 15.57253,36.63562 -0.4488,14.39848 -9.67928,28.79086 -23.85209,32.97925 -7.54671,2.52083 -15.5523,2.6784 -23.42286,2.43896 z"
           id="path5566"
           inkscape:connector-curvature="0" />
      </g>
      <g
         id="g6009"
         style="fill:#000000">
        <g
           style="font-style:normal;font-variant:normal;font-weight:normal;font-stretch:normal;font-size:180px;font-family:'Bauhaus 93';-inkscape-font-specification:'Bauhaus 93, ';text-align:center;letter-spacing:15px;text-anchor:middle;fill:#000000"
           id="g6011">
          <path
             d="m 480.35156,726.97644 c 0,11.33789 0,22.67578 0,34.01367 l 35.35534,35.35534 c 0,-11.33789 0,-22.67578 0,-34.01367 z"
             id="path6013"
             style="fill:#000000"
             inkscape:connector-curvature="0" />
          <path
             d="m 480.35156,760.99011 c -14.53799,2.70076 -30.26194,-2.10035 -40.68831,-12.52673 l 35.35533,35.35534 c 10.42638,10.42638 26.15032,15.22749 40.68832,12.52673 z"
             id="path6015"
             style="fill:#000000"
             inkscape:connector-curvature="0" />
          <path
             d="m 439.66325,748.46338 c -1.77176,-1.77175 -3.39055,-3.70595 -4.82454,-5.79337 l 35.35534,35.35534 c 1.43399,2.08742 3.05278,4.02162 4.82453,5.79337 z"
             id="path6017"
             style="fill:#000000"
             inkscape:connector-curvature="0" />
          <path
             d="m 434.83871,742.67001 c -12.4186,-17.64033 -10.40103,-44.21781 5.44625,-59.14894 l 35.35534,35.35534 c -15.84728,14.93113 -17.86485,41.50861 -5.44625,59.14894 z"
             id="path6019"
             style="fill:#000000"
             inkscape:connector-curvature="0" />
          <path
             d="m 440.28496,683.52107 c 9.07619,-9.10934 22.07355,-13.89291 34.88583,-13.0427 l 35.35534,35.35534 c -12.81228,-0.85021 -25.80964,3.93336 -34.88583,13.0427 z"
             id="path6021"
             style="fill:#000000"
             inkscape:connector-curvature="0" />
          <path
             d="m 475.17079,670.47837 c 11.24511,0.26826 22.76528,4.27808 30.76506,12.27787 l 35.35534,35.35534 c -7.99978,-7.99979 -19.51995,-12.00961 -30.76506,-12.27787 z"
             id="path6023"
             style="fill:#000000"
             inkscape:connector-curvature="0" />
          <path
             d="m 505.93585,682.75624 c 1.29667,1.29667 2.50086,2.69817 3.59639,4.20556 l 35.35534,35.35534 c -1.09553,-1.50739 -2.29972,-2.90889 -3.59639,-4.20556 z"
             id="path6025"
             style="fill:#000000"
             inkscape:connector-curvature="0" />
          <path
             d="m 509.53224,686.9618 c 7.55387,9.95567 9.30579,22.91317 8.78807,35.07705 l 35.35534,35.35534 c 0.51772,-12.16388 -1.2342,-25.12138 -8.78807,-35.07705 z"
             id="path6027"
             style="fill:#000000"
             inkscape:connector-curvature="0" />
          <path
             d="m 518.32031,722.03885 c 0,12.60289 0,25.20579 0,37.80868 l 35.35534,35.35534 c 0,-12.60289 0,-25.20579 0,-37.80868 z"
             id="path6029"
             style="fill:#000000"
             inkscape:connector-curvature="0" />
          <path
             d="m 518.32031,759.84753 c -10.95703,0 -21.91406,0 -32.87109,0 l 35.35534,35.35534 c 10.95703,0 21.91406,0 32.87109,0 z"
             id="path6031"
             style="fill:#000000"
             inkscape:connector-curvature="0" />
          <path
             d="m 485.44922,759.84753 c -0.1123,-14.70756 0.23195,-29.43111 -0.18611,-44.12857 l 35.35534,35.35534 c 0.41806,14.69746 0.0738,29.42101 0.18611,44.12857 z"
             id="path6033"
             style="fill:#000000"
             inkscape:connector-curvature="0" />
          <path
             d="m 485.26311,715.71896 c -0.3323,-3.09302 -1.81154,-6.11598 -4.01892,-8.32335 l 35.35534,35.35533 c 2.20738,2.20738 3.68662,5.23034 4.01892,8.32336 z"
             id="path6035"
             style="fill:#000000"
             inkscape:connector-curvature="0" />
          <path
             d="m 481.24419,707.39561 c -2.35872,-2.35872 -5.54883,-3.78619 -9.05936,-3.37281 l 35.35534,35.35534 c 3.51053,-0.41338 6.70064,1.01409 9.05936,3.3728 z"
             id="path6037"
             style="fill:#000000"
             inkscape:connector-curvature="0" />
          <path
             d="m 472.18483,704.0228 c -8.12863,0.33134 -14.21431,9.50312 -11.35106,17.13621 l 35.35534,35.35534 c -2.86325,-7.63309 3.22243,-16.80487 11.35106,-17.13621 z"
             id="path6039"
             style="fill:#000000"
             inkscape:connector-curvature="0" />
          <path
             d="m 460.83377,721.15901 c 0.53431,1.7491 1.48905,3.26041 2.7203,4.49166 l 35.35533,35.35534 c -1.23124,-1.23125 -2.18598,-2.74256 -2.72029,-4.49166 z"
             id="path6041"
             style="fill:#000000"
             inkscape:connector-curvature="0" />
          <path
             d="m 463.55407,725.65067 c 3.51801,3.51801 9.29341,4.7495 13.96865,2.70798 l 35.35534,35.35534 c -4.67524,2.04152 -10.45064,0.81003 -13.96866,-2.70798 z"
             id="path6043"
             style="fill:#000000"
             inkscape:connector-curvature="0" />
          <path
             d="m 477.52272,728.35865 c 0.98724,-0.36162 1.9363,-0.82671 2.82884,-1.38221 l 35.35534,35.35534 c -0.89254,0.5555 -1.8416,1.02059 -2.82884,1.38221 z"
             id="path6045"
             style="fill:#000000"
             inkscape:connector-curvature="0" />
        </g>
        <path
           style="font-style:normal;font-variant:normal;font-weight:normal;font-stretch:normal;font-size:180px;font-family:'Bauhaus 93';-inkscape-font-specification:'Bauhaus 93, ';text-align:center;letter-spacing:15px;text-anchor:middle;fill:#000000"
           d="m 480.35156,726.97644 c 0,11.33789 0,22.67578 0,34.01367 -17.00844,3.1597 -35.64013,-3.94868 -45.51285,-18.3201 -12.4186,-17.64033 -10.40103,-44.21781 5.44625,-59.14894 9.07619,-9.10934 22.07355,-13.89291 34.88583,-13.0427 13.06782,0.31174 26.50708,5.67628 34.36145,16.48343 7.55387,9.95567 9.30579,22.91317 8.78807,35.07705 0,12.60289 0,25.20579 0,37.80868 -10.95703,0 -21.91406,0 -32.87109,0 -0.1123,-14.70756 0.23195,-29.43111 -0.18611,-44.12857 -0.68738,-6.39809 -6.28246,-12.4964 -13.07828,-11.69616 -8.12863,0.33134 -14.21431,9.50312 -11.35106,17.13621 2.06099,6.74678 10.37746,9.95565 16.68895,7.19964 0.98724,-0.36162 1.9363,-0.82671 2.82884,-1.38221 z"
           id="path5568"
           inkscape:connector-curvature="0" />
      </g>
      <g
         id="g6048"
         style="fill:#000000">
        <g
           style="font-style:normal;font-variant:normal;font-weight:normal;font-stretch:normal;font-size:180px;font-family:'Bauhaus 93';-inkscape-font-specification:'Bauhaus 93, ';text-align:center;letter-spacing:15px;text-anchor:middle;fill:#000000"
           id="g6050">
          <path
             d="m 711.5918,798.25574 c 0,-9.52149 0,-19.04297 0,-28.56446 l 35.35534,35.35534 c 0,9.52149 0,19.04297 0,28.56446 z"
             id="path6052"
             style="fill:#000000"
             inkscape:connector-curvature="0" />
          <path
             d="m 711.5918,769.69128 c 8.27339,3.94995 19.46485,4.27029 26.12548,-2.88837 l 35.35534,35.35534 c -6.66063,7.15866 -17.85209,6.83832 -26.12548,2.88837 z"
             id="path6054"
             style="fill:#000000"
             inkscape:connector-curvature="0" />
          <path
             d="m 737.71728,766.80291 c 2.93982,-2.97689 6.1863,-9.41713 5.76817,-12.00308 l 35.35534,35.35534 c 0.41813,2.58595 -2.82835,9.02619 -5.76817,12.00308 z"
             id="path6056"
             style="fill:#000000"
             inkscape:connector-curvature="0" />
          <path
             d="m 743.48545,754.79983 c -10.36606,6.56297 -25.32478,6.7631 -34.41914,-2.14697 l 35.35534,35.35534 c 9.09436,8.91007 24.05308,8.70994 34.41914,2.14697 z"
             id="path6058"
             style="fill:#000000"
             inkscape:connector-curvature="0" />
          <path
             d="m 709.06631,752.65286 c -0.31189,-0.2836 -0.61551,-0.57328 -0.911,-0.86877 l 35.35534,35.35534 c 0.29549,0.29548 0.59911,0.58517 0.911,0.86877 z"
             id="path6060"
             style="fill:#000000"
             inkscape:connector-curvature="0" />
          <path
             d="m 708.15531,751.78409 c -7.2038,-7.2038 -9.57303,-17.85565 -9.04398,-27.78846 l 35.35534,35.35534 c -0.52905,9.93281 1.84018,20.58466 9.04398,27.78846 z"
             id="path6062"
             style="fill:#000000"
             inkscape:connector-curvature="0" />
          <path
             d="m 699.11133,723.99563 c 0,-17.25835 0,-34.5167 0,-51.77505 l 35.35534,35.35534 c 0,17.25835 0,34.5167 0,51.77505 z"
             id="path6064"
             style="fill:#000000"
             inkscape:connector-curvature="0" />
          <path
             d="m 699.11133,672.22058 c 10.95703,0 21.91406,0 32.87109,0 l 35.35534,35.35534 c -10.95703,0 -21.91406,0 -32.87109,0 z"
             id="path6066"
             style="fill:#000000"
             inkscape:connector-curvature="0" />
          <path
             d="m 731.98242,672.22058 c 0.0658,16.3131 -0.13286,32.63562 0.10162,48.94272 l 35.35534,35.35534 c -0.23448,-16.3071 -0.0358,-32.62962 -0.10162,-48.94272 z"
             id="path6068"
             style="fill:#000000"
             inkscape:connector-curvature="0" />
          <path
             d="m 732.08404,721.1633 c -0.0373,1.66456 0.62018,3.07348 1.65864,4.11194 l 35.35534,35.35534 c -1.03846,-1.03846 -1.69592,-2.44738 -1.65864,-4.11194 z"
             id="path6070"
             style="fill:#000000"
             inkscape:connector-curvature="0" />
          <path
             d="m 733.74268,725.27524 c 2.00929,2.00929 5.44494,2.63174 8.0344,1.03584 l 35.35534,35.35534 c -2.58946,1.5959 -6.02511,0.97345 -8.0344,-1.03584 z"
             id="path6072"
             style="fill:#000000"
             inkscape:connector-curvature="0" />
          <path
             d="m 741.77708,726.31108 c 4.18694,-3.28178 2.643,-9.17405 2.94948,-13.83099 l 35.35534,35.35534 c -0.30648,4.65694 1.23746,10.54921 -2.94948,13.83099 z"
             id="path6074"
             style="fill:#000000"
             inkscape:connector-curvature="0" />
          <path
             d="m 744.72656,712.48009 c 0,-13.41983 0,-26.83967 0,-40.25951 l 35.35534,35.35534 c 0,13.41984 0,26.83968 0,40.25951 z"
             id="path6076"
             style="fill:#000000"
             inkscape:connector-curvature="0" />
          <path
             d="m 744.72656,672.22058 c 10.95703,0 21.91407,0 32.8711,0 l 35.35534,35.35534 c -10.95703,0 -21.91407,0 -32.8711,0 z"
             id="path6078"
             style="fill:#000000"
             inkscape:connector-curvature="0" />
          <path
             d="m 777.59766,672.22058 c -0.0486,27.19653 0.0981,54.39597 -0.0751,81.59066 l 35.35534,35.35534 c 0.1732,-27.19469 0.0265,-54.39413 0.0751,-81.59066 z"
             id="path6080"
             style="fill:#000000"
             inkscape:connector-curvature="0" />
          <path
             d="m 777.52256,753.81124 c -0.36549,13.83868 -6.10097,27.71329 -16.96659,36.57228 l 35.35534,35.35534 c 10.86562,-8.85899 16.6011,-22.7336 16.96659,-36.57228 z"
             id="path6082"
             style="fill:#000000"
             inkscape:connector-curvature="0" />
          <path
             d="m 760.55597,790.38352 c -13.12498,11.79881 -32.76628,14.455 -48.96417,7.87222 l 35.35534,35.35534 c 16.19789,6.58278 35.83919,3.92659 48.96417,-7.87222 z"
             id="path6084"
             style="fill:#000000"
             inkscape:connector-curvature="0" />
        </g>
        <path
           style="font-style:normal;font-variant:normal;font-weight:normal;font-stretch:normal;font-size:180px;font-family:'Bauhaus 93';-inkscape-font-specification:'Bauhaus 93, ';text-align:center;letter-spacing:15px;text-anchor:middle;fill:#000000"
           d="m 711.5918,798.25574 c 0,-9.52149 0,-19.04297 0,-28.56446 8.27339,3.94995 19.46485,4.27029 26.12548,-2.88837 2.93982,-2.97689 6.1863,-9.41713 5.76817,-12.00308 -10.36606,6.56297 -25.32478,6.7631 -34.41914,-2.14697 -7.91556,-7.19752 -10.50573,-18.31699 -9.95498,-28.65723 0,-17.25835 0,-34.5167 0,-51.77505 10.95703,0 21.91406,0 32.87109,0 0.0658,16.3131 -0.13286,32.63562 0.10162,48.94272 -0.10942,4.88526 5.76526,7.5685 9.69304,5.14778 4.18694,-3.28178 2.643,-9.17405 2.94948,-13.83099 0,-13.41983 0,-26.83967 0,-40.25951 10.95703,0 21.91407,0 32.8711,0 -0.0486,27.19653 0.0981,54.39597 -0.0751,81.59066 -0.36549,13.83868 -6.10097,27.71329 -16.96659,36.57228 -13.12498,11.79881 -32.76628,14.455 -48.96417,7.87222 z"
           id="path5574"
           inkscape:connector-curvature="0" />
      </g>
      <g
         id="g6286"
         style="fill:#000000">
        <g
           id="g6288"
           style="font-style:normal;font-variant:normal;font-weight:normal;font-stretch:normal;font-size:180px;font-family:'Bauhaus 93';-inkscape-font-specification:'Bauhaus 93, ';text-align:center;letter-spacing:15px;text-anchor:middle;fill:#000000">
          <path
             id="path6290"
             d="m 853.18359,946.35144 c -16.61133,0 -33.22265,0 -49.83398,0 l 35.35534,35.35534 c 16.61133,0 33.22265,0 49.83398,0 z"
             style="fill:#000000"
             inkscape:connector-curvature="0" />
          <path
             id="path6292"
             d="m 803.34961,946.35144 c -1.6703,-5.04083 -1.45785,-10.61287 0.43945,-15.55664 l 35.35534,35.35534 c -1.8973,4.94377 -2.10975,10.51581 -0.43945,15.55664 z"
             style="fill:#000000"
             inkscape:connector-curvature="0" />
          <path
             id="path6294"
             d="m 803.78906,930.7948 c 5.56641,0 11.13281,0 16.69922,0 l 35.35534,35.35534 c -5.56641,0 -11.13281,0 -16.69922,0 z"
             style="fill:#000000"
             inkscape:connector-curvature="0" />
          <path
             id="path6296"
             d="m 820.48828,930.7948 c -0.29882,-2.59373 -1.49293,-5.11063 -3.31523,-6.93292 l 35.35534,35.35534 c 1.8223,1.82229 3.01641,4.33918 3.31523,6.93292 z"
             style="fill:#000000"
             inkscape:connector-curvature="0" />
          <path
             id="path6298"
             d="m 817.17305,923.86188 c -1.70516,-1.70516 -3.96034,-2.80215 -6.54672,-2.78483 l 35.35534,35.35534 c 2.58638,-0.0173 4.84156,1.07966 6.54672,2.78483 z"
             style="fill:#000000"
             inkscape:connector-curvature="0" />
          <path
             id="path6300"
             d="m 810.62633,921.07705 c -7.18151,-0.90007 -12.91253,5.46825 -14.2709,12.01458 l 35.35534,35.35534 c 1.35837,-6.54633 7.08939,-12.91465 14.2709,-12.01458 z"
             style="fill:#000000"
             inkscape:connector-curvature="0" />
          <path
             id="path6302"
             d="m 796.35543,933.09163 c -1.5505,7.46949 -0.98886,16.67033 4.64069,22.29988 l 35.35534,35.35534 c -5.62955,-5.62955 -6.19119,-14.83039 -4.64069,-22.29988 z"
             style="fill:#000000"
             inkscape:connector-curvature="0" />
          <path
             id="path6304"
             d="m 800.99612,955.39151 c 0.45514,0.45513 0.94339,0.88692 1.46634,1.29257 l 35.35534,35.35534 c -0.52295,-0.40565 -1.01121,-0.83744 -1.46634,-1.29257 z"
             style="fill:#000000"
             inkscape:connector-curvature="0" />
          <path
             id="path6306"
             d="m 802.46246,956.68408 c 4.81006,3.61457 11.83289,2.16231 15.60746,-2.26593 l 35.35534,35.35534 c -3.77457,4.42824 -10.7974,5.8805 -15.60746,2.26593 z"
             style="fill:#000000"
             inkscape:connector-curvature="0" />
          <path
             id="path6308"
             d="m 818.06992,954.41815 c 0.46062,-0.40665 0.90033,-0.22816 1.33102,0.20253 l 35.35534,35.35534 c -0.43069,-0.4307 -0.8704,-0.60919 -1.33102,-0.20253 z"
             style="fill:#000000"
             inkscape:connector-curvature="0" />
          <path
             id="path6310"
             d="m 819.40094,954.62068 c 0.68634,0.68633 1.34978,2.01312 2.03849,2.63303 l 35.35534,35.35534 c -0.68871,-0.61991 -1.35215,-1.9467 -2.03849,-2.63303 z"
             style="fill:#000000"
             inkscape:connector-curvature="0" />
          <path
             id="path6312"
             d="m 821.43943,957.25371 c 0.0587,0.0529 0.11762,0.10057 0.17673,0.14231 l 35.35534,35.35534 c -0.0591,-0.0417 -0.11801,-0.0895 -0.17673,-0.14231 z"
             style="fill:#000000"
             inkscape:connector-curvature="0" />
          <path
             id="path6314"
             d="m 821.61616,957.39602 c 5.24904,6.30871 10.49808,12.61741 15.74712,18.92612 l 35.35534,35.35536 c -5.24904,-6.3087 -10.49808,-12.61743 -15.74712,-18.92614 z"
             style="fill:#000000"
             inkscape:connector-curvature="0" />
          <path
             id="path6316"
             d="m 837.36328,976.32214 c -15.57902,12.91037 -39.81193,13.81284 -56.22599,1.96731 l 35.35534,35.35535 c 16.41406,11.8455 40.64697,10.943 56.22599,-1.9673 z"
             style="fill:#000000"
             inkscape:connector-curvature="0" />
          <path
             id="path6318"
             d="m 781.13729,978.28945 c -2.08455,-1.4653 -4.03652,-3.11187 -5.83485,-4.9102 l 35.35534,35.35535 c 1.79833,1.7983 3.7503,3.4449 5.83485,4.9102 z"
             style="fill:#000000"
             inkscape:connector-curvature="0" />
          <path
             id="path6320"
             d="m 775.30244,973.37925 c -7.74351,-7.7435 -12.63848,-18.30099 -13.00464,-29.3181 l 35.35534,35.35534 c 0.36616,11.01711 5.26113,21.57461 13.00464,29.31811 z"
             style="fill:#000000"
             inkscape:connector-curvature="0" />
          <path
             id="path6322"
             d="m 762.2978,944.06115 c -0.95138,-13.03011 3.76392,-26.43439 13.27837,-35.50268 l 35.35534,35.35534 c -9.51445,9.06829 -14.22975,22.47257 -13.27837,35.50268 z"
             style="fill:#000000"
             inkscape:connector-curvature="0" />
          <path
             id="path6324"
             d="m 775.57617,908.55847 c 9.3832,-9.64081 23.17286,-14.23059 36.48097,-13.15715 l 35.35534,35.35534 c -13.30811,-1.07344 -27.09777,3.51634 -36.48097,13.15715 z"
             style="fill:#000000"
             inkscape:connector-curvature="0" />
          <path
             id="path6326"
             d="m 812.05714,895.40132 c 10.75897,0.47625 20.98959,5.34859 28.5516,12.91061 l 35.35534,35.35534 c -7.56201,-7.56202 -17.79263,-12.43436 -28.5516,-12.91061 z"
             style="fill:#000000"
             inkscape:connector-curvature="0" />
          <path
             id="path6328"
             d="m 840.60874,908.31193 c 1.69808,1.69808 3.26161,3.53179 4.66633,5.48181 l 35.35534,35.35534 c -1.40472,-1.95002 -2.96825,-3.78373 -4.66633,-5.48181 z"
             style="fill:#000000"
             inkscape:connector-curvature="0" />
          <path
             id="path6330"
             d="m 845.27507,913.79374 c 6.9373,9.24174 9.24715,21.22311 7.90852,32.5577 l 35.35534,35.35534 c 1.33863,-11.33459 -0.97122,-23.31596 -7.90852,-32.5577 z"
             style="fill:#000000"
             inkscape:connector-curvature="0" />
        </g>
        <path
           style="font-style:normal;font-variant:normal;font-weight:normal;font-stretch:normal;font-size:180px;font-family:'Bauhaus 93';-inkscape-font-specification:'Bauhaus 93, ';text-align:center;letter-spacing:15px;text-anchor:middle;fill:#000000"
           d="m 853.18359,946.35144 c -16.61133,0 -33.22265,0 -49.83398,0 -1.6703,-5.04083 -1.45785,-10.61287 0.43945,-15.55664 5.56641,0 11.13281,0 16.69922,0 -0.57844,-5.02075 -4.51153,-9.75358 -9.86195,-9.71775 -7.18151,-0.90007 -12.91253,5.46825 -14.2709,12.01458 -1.67585,8.07338 -0.88424,18.16937 6.10703,23.59245 4.81006,3.61457 11.83289,2.16231 15.60746,-2.26593 1.25723,-1.10993 2.35865,2.1393 3.54624,2.97787 5.24904,6.30871 10.49808,12.61741 15.74712,18.92612 -15.57902,12.91037 -39.81193,13.81284 -56.22599,1.96731 -11.06051,-7.77481 -18.38829,-20.6526 -18.83949,-34.2283 -0.95138,-13.03011 3.76392,-26.43439 13.27837,-35.50268 9.3832,-9.64081 23.17286,-14.23059 36.48097,-13.15715 13.17495,0.5832 25.55761,7.75848 33.21793,18.39242 6.9373,9.24174 9.24715,21.22311 7.90852,32.5577 z"
           id="path5588"
           inkscape:connector-curvature="0" />
      </g>
      <g
         id="g6333"
         style="fill:#000000">
        <g
           id="g6335"
           style="font-style:normal;font-variant:normal;font-weight:normal;font-stretch:normal;font-size:180px;font-family:'Bauhaus 93';-inkscape-font-specification:'Bauhaus 93, ';text-align:center;letter-spacing:15px;text-anchor:middle;fill:#000000">
          <path
             id="path6337"
             d="m 155.5957,926.22449 c 12.45117,0.32226 24.90235,0.64453 37.35352,0.96679 l 35.35534,35.35534 c -12.45117,-0.32226 -24.90235,-0.64453 -37.35352,-0.96679 z"
             style="fill:#000000"
             inkscape:connector-curvature="0" />
          <path
             id="path6339"
             d="m 192.94922,927.19128 c -2.2157,19.17429 -10.27746,38.87076 -26.60957,50.20066 l 35.35534,35.35536 c 16.33211,-11.3299 24.39387,-31.02639 26.60957,-50.20068 z"
             style="fill:#000000"
             inkscape:connector-curvature="0" />
          <path
             id="path6341"
             d="m 166.33965,977.39194 c -15.84872,11.03078 -36.78095,12.77497 -55.11361,7.92252 l 35.35534,35.35534 c 18.33266,4.8524 39.26489,3.1083 55.11361,-7.9225 z"
             style="fill:#000000"
             inkscape:connector-curvature="0" />
          <path
             id="path6343"
             d="m 111.22604,985.31446 c -9.86587,-2.74108 -18.813998,-8.19137 -26.018175,-15.39554 l 35.355335,35.35538 c 7.20418,7.2041 16.15231,12.6544 26.01818,15.3955 z"
             style="fill:#000000"
             inkscape:connector-curvature="0" />
          <path
             id="path6345"
             d="M 85.207865,969.91892 C 75.077692,959.78874 68.395775,946.19067 67.459259,931.78082 l 35.355341,35.35534 c 0.93651,14.40985 7.61843,28.00792 17.7486,38.13814 z"
             style="fill:#000000"
             inkscape:connector-curvature="0" />
          <path
             id="path6347"
             d="m 67.459259,931.78082 c -1.848171,-18.21743 3.884729,-37.36924 16.957483,-50.46012 l 35.355338,35.35534 c -13.07275,13.09088 -18.80565,32.24269 -16.95748,50.46012 z"
             style="fill:#000000"
             inkscape:connector-curvature="0" />
          <path
             id="path6349"
             d="m 84.416742,881.3207 c 12.41319,-13.40553 30.897208,-20.30971 49.038678,-19.39275 l 35.35534,35.35534 c -18.14147,-0.91696 -36.62549,5.98722 -49.03868,19.39275 z"
             style="fill:#000000"
             inkscape:connector-curvature="0" />
          <path
             id="path6351"
             d="m 133.45542,861.92795 c 15.43501,0.13144 30.61469,6.63404 41.47289,17.49224 l 35.35534,35.35534 c -10.8582,-10.8582 -26.03788,-17.3608 -41.47289,-17.49224 z"
             style="fill:#000000"
             inkscape:connector-curvature="0" />
          <path
             id="path6353"
             d="m 174.92831,879.42019 c 3.85158,3.85158 7.15941,8.25119 9.74202,13.10889 l 35.35534,35.35534 c -2.58261,-4.8577 -5.89044,-9.25731 -9.74202,-13.10889 z"
             style="fill:#000000"
             inkscape:connector-curvature="0" />
          <path
             id="path6355"
             d="m 184.67033,892.52908 c 3.52315,6.72254 6.9153,14.91027 7.66002,21.85385 l 35.35534,35.35534 c -0.74472,-6.94358 -4.13687,-15.13131 -7.66002,-21.85385 z"
             style="fill:#000000"
             inkscape:connector-curvature="0" />
          <path
             id="path6357"
             d="m 192.33035,914.38293 c -12.62574,0.84172 -25.25149,1.68343 -37.87723,2.52515 l 35.35534,35.35534 c 12.62574,-0.84172 25.25149,-1.68343 37.87723,-2.52515 z"
             style="fill:#000000"
             inkscape:connector-curvature="0" />
          <path
             id="path6359"
             d="m 154.45312,916.90808 c -1.34176,-4.8184 -3.93479,-9.48949 -7.503,-13.05771 l 35.35534,35.35534 c 3.56821,3.56821 6.16124,8.23931 7.503,13.05771 z"
             style="fill:#000000"
             inkscape:connector-curvature="0" />
          <path
             id="path6361"
             d="m 146.95012,903.85037 c -3.61983,-3.61983 -8.24327,-6.10464 -13.58208,-6.45676 l 35.35534,35.35534 c 5.33881,0.35212 9.96225,2.83693 13.58208,6.45676 z"
             style="fill:#000000"
             inkscape:connector-curvature="0" />
          <path
             id="path6363"
             d="m 133.36804,897.39361 c -12.19355,-1.87469 -24.77838,6.0992 -28.12679,17.9987 l 35.35534,35.35534 c 3.34841,-11.8995 15.93324,-19.87339 28.12679,-17.9987 z"
             style="fill:#000000"
             inkscape:connector-curvature="0" />
          <path
             id="path6365"
             d="m 105.24125,915.39231 c -3.1984,10.13455 -1.15624,22.42274 6.38169,29.96067 l 35.35534,35.35534 c -7.53793,-7.53793 -9.58009,-19.82612 -6.38169,-29.96067 z"
             style="fill:#000000"
             inkscape:connector-curvature="0" />
          <path
             id="path6367"
             d="m 111.62294,945.35298 c 1.59234,1.59234 3.42991,2.97269 5.51512,4.076 l 35.35534,35.35534 c -2.08522,-1.10331 -3.92279,-2.48367 -5.51512,-4.076 z"
             style="fill:#000000"
             inkscape:connector-curvature="0" />
          <path
             id="path6369"
             d="m 117.13806,949.42898 c 11.66465,6.22797 28.76742,2.88527 34.75662,-9.68444 l 35.35534,35.35534 c -5.9892,12.56971 -23.09197,15.91241 -34.75662,9.68444 z"
             style="fill:#000000"
             inkscape:connector-curvature="0" />
          <path
             id="path6371"
             d="m 151.89468,939.74454 c 2.18028,-4.18039 3.24443,-8.85342 3.70102,-13.52005 l 35.35534,35.35534 c -0.45659,4.66663 -1.52074,9.33966 -3.70102,13.52005 z"
             style="fill:#000000"
             inkscape:connector-curvature="0" />
        </g>
        <path
           style="font-style:normal;font-variant:normal;font-weight:normal;font-stretch:normal;font-size:180px;font-family:'Bauhaus 93';-inkscape-font-specification:'Bauhaus 93, ';text-align:center;letter-spacing:15px;text-anchor:middle;fill:#000000"
           d="m 155.5957,926.22449 c 12.45117,0.32226 24.90235,0.64453 37.35352,0.96679 -2.2157,19.17429 -10.27746,38.87076 -26.60957,50.20066 -15.84872,11.03078 -36.78095,12.77497 -55.11361,7.92252 -23.738792,-6.59545 -42.164252,-28.87608 -43.766781,-53.53364 -1.848171,-18.21743 3.884729,-37.36924 16.957483,-50.46012 12.41319,-13.40553 30.897208,-20.30971 49.038678,-19.39275 20.91006,0.17806 41.35154,12.04885 51.21491,30.60113 3.52315,6.72254 6.9153,14.91027 7.66002,21.85385 -12.62574,0.84172 -25.25149,1.68343 -37.87723,2.52515 -2.70293,-9.7065 -10.4836,-18.81525 -21.08508,-19.51447 -12.19355,-1.87469 -24.77838,6.0992 -28.12679,17.9987 -3.87404,12.2754 -0.0596,27.71042 11.89681,34.03667 11.66465,6.22797 28.76742,2.88527 34.75662,-9.68444 2.18028,-4.18039 3.24443,-8.85342 3.70102,-13.52005 z"
           id="path5576"
           inkscape:connector-curvature="0" />
      </g>
      <g
         id="g6374"
         style="fill:#000000">
        <g
           id="g6376"
           style="font-style:normal;font-variant:normal;font-weight:normal;font-stretch:normal;font-size:180px;font-family:'Bauhaus 93';-inkscape-font-specification:'Bauhaus 93, ';text-align:center;letter-spacing:15px;text-anchor:middle;fill:#000000">
          <path
             id="path6378"
             d="m 1008.7793,864.87683 c -0.2051,24.81445 -0.4101,49.62891 -0.6152,74.44336 l 35.3553,35.35534 c 0.2051,-24.81445 0.4101,-49.62891 0.6152,-74.44336 z"
             style="fill:#000000"
             inkscape:connector-curvature="0" />
          <path
             id="path6380"
             d="m 1008.1641,939.32019 c -10.4004,0 -20.80081,0 -31.20121,0 l 35.35531,35.35534 c 10.4004,0 20.8008,0 31.2012,0 z"
             style="fill:#000000"
             inkscape:connector-curvature="0" />
          <path
             id="path6382"
             d="m 976.96289,939.32019 c -0.61523,-24.81445 -1.23047,-49.62891 -1.8457,-74.44336 l 35.35531,35.35534 c 0.6153,24.81445 1.2305,49.62891 1.8457,74.44336 z"
             style="fill:#000000"
             inkscape:connector-curvature="0" />
          <path
             id="path6384"
             d="m 975.11719,864.87683 c 11.2207,0 22.44141,0 33.66211,0 l 35.3553,35.35534 c -11.2207,0 -22.4414,0 -33.6621,0 z"
             style="fill:#000000"
             inkscape:connector-curvature="0" />
          <path
             id="path6386"
             d="m 991.81641,945.47253 c 5.57911,-0.1652 10.82669,2.28447 14.68809,6.14583 l 35.3553,35.35533 c -3.8613,-3.86135 -9.1089,-6.31102 -14.6881,-6.14582 z"
             style="fill:#000000"
             inkscape:connector-curvature="0" />
          <path
             id="path6388"
             d="m 1006.5045,951.61836 c 4.4333,4.43328 7.0392,10.7274 6.2217,17.06142 l 35.3553,35.35532 c 0.8176,-6.334 -1.7884,-12.62812 -6.2217,-17.06141 z"
             style="fill:#000000"
             inkscape:connector-curvature="0" />
          <path
             id="path6390"
             d="m 1012.7262,968.67978 c -0.7696,11.04126 -11.7081,19.66253 -22.57937,18.48982 l 35.35537,35.3553 c 10.8712,1.1727 21.8097,-7.4485 22.5793,-18.4898 z"
             style="fill:#000000"
             inkscape:connector-curvature="0" />
          <path
             id="path6392"
             d="m 990.14683,987.1696 c -5.0319,-0.10147 -9.78557,-2.33967 -13.27555,-5.82966 l 35.35532,35.35536 c 3.49,3.49 8.2437,5.7282 13.2756,5.8296 z"
             style="fill:#000000"
             inkscape:connector-curvature="0" />
          <path
             id="path6394"
             d="m 976.87128,981.33994 c -3.20803,-3.20803 -5.34831,-7.47375 -5.65544,-12.10982 l 35.35536,35.35538 c 0.3071,4.636 2.4474,8.9018 5.6554,12.1098 z"
             style="fill:#000000"
             inkscape:connector-curvature="0" />
          <path
             id="path6396"
             d="m 971.21584,969.23012 c -1.39427,-9.50225 4.49105,-19.36503 13.55181,-22.57999 l 35.35535,35.35534 c -9.0608,3.21496 -14.9461,13.07774 -13.5518,22.58003 z"
             style="fill:#000000"
             inkscape:connector-curvature="0" />
          <path
             id="path6398"
             d="m 984.76765,946.65013 c 2.2547,-0.8127 4.65606,-1.17985 7.04876,-1.1776 l 35.35529,35.35534 c -2.3927,-0.002 -4.794,0.3649 -7.0487,1.1776 z"
             style="fill:#000000"
             inkscape:connector-curvature="0" />
        </g>
        <path
           style="font-style:normal;font-variant:normal;font-weight:normal;font-stretch:normal;font-size:180px;font-family:'Bauhaus 93';-inkscape-font-specification:'Bauhaus 93, ';text-align:center;letter-spacing:15px;text-anchor:middle;fill:#000000"
           d="m 1008.7793,864.87683 c -0.2051,24.81445 -0.4101,49.62891 -0.6152,74.44336 -10.4004,0 -20.80081,0 -31.20121,0 -0.61523,-24.81445 -1.23047,-49.62891 -1.8457,-74.44336 11.2207,0 22.44141,0 33.66211,0 z m -16.96289,80.5957 c 11.98459,-0.35487 22.43939,11.35635 20.90979,23.20725 -0.7696,11.04126 -11.7081,19.66253 -22.57937,18.48982 -9.65727,-0.19474 -18.28974,-8.25987 -18.93099,-17.93948 -1.39427,-9.50225 4.49105,-19.36503 13.55181,-22.57999 2.2547,-0.8127 4.65606,-1.17985 7.04876,-1.1776 z"
           id="path5592"
           inkscape:connector-curvature="0" />
      </g>
      <g
         id="g6401"
         style="fill:#000000">
        <g
           id="g6403"
           style="font-style:normal;font-variant:normal;font-weight:normal;font-stretch:normal;font-size:180px;font-family:'Bauhaus 93';-inkscape-font-specification:'Bauhaus 93, ';text-align:center;letter-spacing:15px;text-anchor:middle;fill:#000000">
          <path
             id="path6405"
             d="m 936.82617,898.45105 c 0,11.54297 0,23.08594 0,34.62891 l 35.35534,35.35534 c 0,-11.54297 0,-23.08594 0,-34.62891 z"
             style="fill:#000000"
             inkscape:connector-curvature="0" />
          <path
             id="path6407"
             d="m 936.82617,933.07996 c -4.1735,-0.0577 -9.67357,0.68173 -11.23214,5.26519 l 35.35534,35.35534 c 1.55857,-4.58346 7.05864,-5.32289 11.23214,-5.26519 z"
             style="fill:#000000"
             inkscape:connector-curvature="0" />
          <path
             id="path6409"
             d="m 925.59403,938.34515 c -2.17404,5.99655 -1.55013,12.57859 -3.50147,18.65252 l 35.35534,35.35534 c 1.95134,-6.07393 1.32743,-12.65597 3.50147,-18.65252 z"
             style="fill:#000000"
             inkscape:connector-curvature="0" />
          <path
             id="path6411"
             d="m 922.09256,956.99767 c -3.06138,12.62217 -12.25424,24.24389 -25.04445,27.87613 l 35.35534,35.3553 c 12.79021,-3.6322 21.98307,-15.2539 25.04445,-27.87609 z"
             style="fill:#000000"
             inkscape:connector-curvature="0" />
          <path
             id="path6413"
             d="m 897.04811,984.8738 c -7.61274,2.30162 -15.61913,2.41386 -23.50319,2.34678 l 35.35534,35.35532 c 7.88406,0.067 15.89045,-0.045 23.50319,-2.3468 z"
             style="fill:#000000"
             inkscape:connector-curvature="0" />
          <path
             id="path6415"
             d="m 873.54492,987.22058 c 0,-11.60156 0,-23.20313 0,-34.80469 l 35.35534,35.35534 c 0,11.60156 0,23.20317 0,34.80467 z"
             style="fill:#000000"
             inkscape:connector-curvature="0" />
          <path
             id="path6417"
             d="m 873.54492,952.41589 c 5.31079,0.13018 11.98887,-0.41244 14.60324,-5.82 l 35.35534,35.35534 c -2.61437,5.40756 -9.29245,5.95018 -14.60324,5.82 z"
             style="fill:#000000"
             inkscape:connector-curvature="0" />
          <path
             id="path6419"
             d="m 888.14816,946.59589 c 3.01039,-6.40014 1.84969,-13.68543 3.06278,-20.48127 l 35.35534,35.35534 c -1.21309,6.79584 -0.0524,14.08113 -3.06278,20.48127 z"
             style="fill:#000000"
             inkscape:connector-curvature="0" />
          <path
             id="path6421"
             d="m 891.21094,926.11462 c 0.53048,-5.83288 2.495,-11.62299 6.6311,-15.90949 l 35.35534,35.35534 c -4.1361,4.2865 -6.10062,10.07661 -6.6311,15.90949 z"
             style="fill:#000000"
             inkscape:connector-curvature="0" />
          <path
             id="path6423"
             d="m 897.84204,910.20513 c 6.77285,-8.21758 17.61603,-11.73633 27.98862,-11.7449 l 35.35534,35.35534 c -10.37259,0.009 -21.21577,3.52732 -27.98862,11.7449 z"
             style="fill:#000000"
             inkscape:connector-curvature="0" />
          <path
             id="path6425"
             d="m 925.83066,898.46023 c 3.66506,-0.0201 7.33036,-0.004 10.99551,-0.009 l 35.35534,35.35534 c -3.66515,0.005 -7.33045,-0.0111 -10.99551,0.009 z"
             style="fill:#000000"
             inkscape:connector-curvature="0" />
        </g>
        <path
           style="font-style:normal;font-variant:normal;font-weight:normal;font-stretch:normal;font-size:180px;font-family:'Bauhaus 93';-inkscape-font-specification:'Bauhaus 93, ';text-align:center;letter-spacing:15px;text-anchor:middle;fill:#000000"
           d="m 936.82617,898.45105 c 0,11.54297 0,23.08594 0,34.62891 -4.1735,-0.0577 -9.67357,0.68173 -11.23214,5.26519 -2.17404,5.99655 -1.55013,12.57859 -3.50147,18.65252 -3.06138,12.62217 -12.25424,24.24389 -25.04445,27.87613 -7.61274,2.30162 -15.61913,2.41386 -23.50319,2.34678 0,-11.60156 0,-23.20313 0,-34.80469 5.31079,0.13018 11.98887,-0.41244 14.60324,-5.82 3.01039,-6.40014 1.84969,-13.68543 3.06278,-20.48127 0.53048,-5.83288 2.495,-11.62299 6.6311,-15.90949 6.77285,-8.21758 17.61603,-11.73633 27.98862,-11.7449 3.66506,-0.0201 7.33036,-0.004 10.99551,-0.009 z"
           id="path5590"
           inkscape:connector-curvature="0" />
      </g>
      <g
         id="g6428"
         style="fill:#000000">
        <g
           id="g6430"
           style="font-style:normal;font-variant:normal;font-weight:normal;font-stretch:normal;font-size:180px;font-family:'Bauhaus 93';-inkscape-font-specification:'Bauhaus 93, ';text-align:center;letter-spacing:15px;text-anchor:middle;fill:#000000">
          <path
             id="path6432"
             d="m 502.58789,896.34167 c 0,11.71875 0,23.4375 0,35.15625 l 35.35534,35.35534 c 0,-11.71875 0,-23.4375 0,-35.15625 z"
             style="fill:#000000"
             inkscape:connector-curvature="0" />
          <path
             id="path6434"
             d="m 502.58789,931.49792 c -3.80827,-2.4449 -9.75712,-2.99537 -12.67496,1.07907 l 35.35534,35.35534 c 2.91784,-4.07444 8.86669,-3.52397 12.67496,-1.07907 z"
             style="fill:#000000"
             inkscape:connector-curvature="0" />
          <path
             id="path6436"
             d="m 489.91293,932.57699 c -3.46794,5.27144 -2.31636,11.83267 -2.53012,17.80825 l 35.35534,35.35534 c 0.21376,-5.97558 -0.93782,-12.53681 2.53012,-17.80825 z"
             style="fill:#000000"
             inkscape:connector-curvature="0" />
          <path
             id="path6438"
             d="m 487.38281,950.38524 c 0,11.48743 0,22.97486 0,34.46229 l 35.35534,35.35537 c 0,-11.4875 0,-22.97489 0,-34.46232 z"
             style="fill:#000000"
             inkscape:connector-curvature="0" />
          <path
             id="path6440"
             d="m 487.38281,984.84753 c -10.95703,0 -21.91406,0 -32.87109,0 l 35.35534,35.35537 c 10.95703,0 21.91406,0 32.87109,0 z"
             style="fill:#000000"
             inkscape:connector-curvature="0" />
          <path
             id="path6442"
             d="m 454.51172,984.84753 c 0.0392,-16.93957 -0.0803,-33.88143 0.0633,-50.81949 l 35.35534,35.35534 c -0.1436,16.93806 -0.0241,33.87992 -0.0633,50.81952 z"
             style="fill:#000000"
             inkscape:connector-curvature="0" />
          <path
             id="path6444"
             d="m 454.57502,934.02804 c 0.32163,-11.28803 4.53818,-22.88183 13.36197,-30.27984 l 35.35534,35.35534 c -8.82379,7.39801 -13.04034,18.99181 -13.36197,30.27984 z"
             style="fill:#000000"
             inkscape:connector-curvature="0" />
          <path
             id="path6446"
             d="m 467.93699,903.7482 c 9.39993,-8.27561 22.76264,-9.64394 34.6509,-7.40653 l 35.35534,35.35534 c -11.88826,-2.23741 -25.25097,-0.86908 -34.6509,7.40653 z"
             style="fill:#000000"
             inkscape:connector-curvature="0" />
        </g>
        <path
           style="font-style:normal;font-variant:normal;font-weight:normal;font-stretch:normal;font-size:180px;font-family:'Bauhaus 93';-inkscape-font-specification:'Bauhaus 93, ';text-align:center;letter-spacing:15px;text-anchor:middle;fill:#000000"
           d="m 502.58789,896.34167 c 0,11.71875 0,23.4375 0,35.15625 -3.80827,-2.4449 -9.75712,-2.99537 -12.67496,1.07907 -3.46794,5.27144 -2.31636,11.83267 -2.53012,17.80825 0,11.48743 0,22.97486 0,34.46229 -10.95703,0 -21.91406,0 -32.87109,0 0.0392,-16.93957 -0.0803,-33.88143 0.0633,-50.81949 0.32163,-11.28803 4.53818,-22.88183 13.36197,-30.27984 9.39993,-8.27561 22.76264,-9.64394 34.6509,-7.40653 z"
           id="path5582"
           inkscape:connector-curvature="0" />
      </g>
      <g
         id="g6449"
         style="fill:#000000">
        <g
           id="g6451"
           style="font-style:normal;font-variant:normal;font-weight:normal;font-stretch:normal;font-size:180px;font-family:'Bauhaus 93';-inkscape-font-specification:'Bauhaus 93, ';text-align:center;letter-spacing:15px;text-anchor:middle;fill:#000000">
          <path
             id="path6453"
             d="m 255.23437,864.87683 c 0,12.2168 0,24.43359 0,36.65039 l 35.35534,35.35534 c 0,-12.2168 0,-24.43359 0,-36.65039 z"
             style="fill:#000000"
             inkscape:connector-curvature="0" />
          <path
             id="path6455"
             d="m 255.23437,901.52722 c 8.33027,-6.59234 20.51076,-8.1777 29.86943,-2.84202 l 35.35534,35.35534 c -9.35867,-5.33568 -21.53916,-3.75032 -29.86943,2.84202 z"
             style="fill:#000000"
             inkscape:connector-curvature="0" />
          <path
             id="path6457"
             d="m 285.1038,898.6852 c 1.89539,1.0935 3.57895,2.40658 5.06456,3.89219 l 35.35534,35.35534 c -1.48561,-1.48561 -3.16917,-2.79869 -5.06456,-3.89219 z"
             style="fill:#000000"
             inkscape:connector-curvature="0" />
          <path
             id="path6459"
             d="m 290.16836,902.57739 c 6.93432,6.93432 9.55575,17.62743 9.275,27.29366 l 35.35534,35.35534 c 0.28075,-9.66623 -2.34068,-20.35934 -9.275,-27.29366 z"
             style="fill:#000000"
             inkscape:connector-curvature="0" />
          <path
             id="path6461"
             d="m 299.44336,929.87105 c 0,18.3255 0,36.65099 0,54.97648 l 35.35534,35.35537 c 0,-18.3255 0,-36.65101 0,-54.97651 z"
             style="fill:#000000"
             inkscape:connector-curvature="0" />
          <path
             id="path6463"
             d="m 299.44336,984.84753 c -10.95703,0 -21.91406,0 -32.87109,0 l 35.35534,35.35537 c 10.95703,0 21.91406,0 32.87109,0 z"
             style="fill:#000000"
             inkscape:connector-curvature="0" />
          <path
             id="path6465"
             d="m 266.57227,984.84753 c -0.0488,-16.29957 0.0992,-32.60318 -0.0769,-48.90015 l 35.35534,35.35534 c 0.1761,16.29697 0.0281,32.60058 0.0769,48.90018 z"
             style="fill:#000000"
             inkscape:connector-curvature="0" />
          <path
             id="path6467"
             d="m 266.49537,935.94738 c 0.41863,-2.09389 -0.30772,-3.97852 -1.59351,-5.26431 l 35.35533,35.35534 c 1.28579,1.28579 2.01215,3.17042 1.59352,5.26431 z"
             style="fill:#000000"
             inkscape:connector-curvature="0" />
          <path
             id="path6469"
             d="m 264.90186,930.68307 c -1.90754,-1.90753 -5.04635,-2.49708 -7.50456,-0.49664 l 35.35534,35.35534 c 2.4582,-2.00044 5.59702,-1.41089 7.50455,0.49664 z"
             style="fill:#000000"
             inkscape:connector-curvature="0" />
          <path
             id="path6471"
             d="m 257.3973,930.18643 c -3.28335,3.70836 -1.83816,9.04877 -2.16293,13.58392 l 35.35534,35.35534 c 0.32477,-4.53515 -1.12042,-9.87556 2.16293,-13.58392 z"
             style="fill:#000000"
             inkscape:connector-curvature="0" />
          <path
             id="path6473"
             d="m 255.23437,943.77035 c 0,13.69239 0,27.38479 0,41.07718 l 35.35534,35.35537 c 0,-13.6924 0,-27.38482 0,-41.07721 z"
             style="fill:#000000"
             inkscape:connector-curvature="0" />
          <path
             id="path6475"
             d="m 255.23437,984.84753 c -10.95703,0 -21.91406,0 -32.87109,0 l 35.35534,35.35537 c 10.95703,0 21.91406,0 32.87109,0 z"
             style="fill:#000000"
             inkscape:connector-curvature="0" />
          <path
             id="path6477"
             d="m 222.36328,984.84753 c 0,-39.99023 0,-79.98047 0,-119.9707 l 35.35534,35.35534 c 0,39.99023 0,79.98047 0,119.97073 z"
             style="fill:#000000"
             inkscape:connector-curvature="0" />
          <path
             id="path6479"
             d="m 222.36328,864.87683 c 10.95703,0 21.91406,0 32.87109,0 l 35.35534,35.35534 c -10.95703,0 -21.91406,0 -32.87109,0 z"
             style="fill:#000000"
             inkscape:connector-curvature="0" />
        </g>
        <path
           style="font-style:normal;font-variant:normal;font-weight:normal;font-stretch:normal;font-size:180px;font-family:'Bauhaus 93';-inkscape-font-specification:'Bauhaus 93, ';text-align:center;letter-spacing:15px;text-anchor:middle;fill:#000000"
           d="m 255.23437,864.87683 c 0,12.2168 0,24.43359 0,36.65039 8.33027,-6.59234 20.51076,-8.1777 29.86943,-2.84202 10.74244,6.1976 14.68046,19.44873 14.33956,31.18585 0,18.3255 0,36.65099 0,54.97648 -10.95703,0 -21.91406,0 -32.87109,0 -0.0488,-16.29957 0.0992,-32.60318 -0.0769,-48.90015 1.03968,-5.20029 -4.98289,-9.1098 -9.09807,-5.76095 -3.28335,3.70836 -1.83816,9.04877 -2.16293,13.58392 0,13.69239 0,27.38479 0,41.07718 -10.95703,0 -21.91406,0 -32.87109,0 0,-39.99023 0,-79.98047 0,-119.9707 10.95703,0 21.91406,0 32.87109,0 z"
           id="path5578"
           inkscape:connector-curvature="0" />
      </g>
      <g
         id="g6482"
         style="fill:#000000">
        <g
           id="g6484"
           style="font-style:normal;font-variant:normal;font-weight:normal;font-stretch:normal;font-size:180px;font-family:'Bauhaus 93';-inkscape-font-specification:'Bauhaus 93, ';text-align:center;letter-spacing:15px;text-anchor:middle;fill:#000000">
          <path
             id="path6486"
             d="m 382.38281,951.97644 c 0,11.33789 0,22.67578 0,34.01367 l 35.35534,35.35529 c 0,-11.3378 0,-22.67573 0,-34.01362 z"
             style="fill:#000000"
             inkscape:connector-curvature="0" />
          <path
             id="path6488"
             d="m 382.38281,985.99011 c -14.3339,2.56164 -29.91886,-1.8327 -40.26519,-12.17904 l 35.35534,35.35533 c 10.34633,10.3463 25.93129,14.7407 40.26519,12.179 z"
             style="fill:#000000"
             inkscape:connector-curvature="0" />
          <path
             id="path6490"
             d="m 342.11762,973.81107 c -0.57419,-0.57418 -1.13224,-1.1667 -1.67305,-1.77738 l 35.35534,35.35531 c 0.54081,0.6107 1.09886,1.2032 1.67305,1.7774 z"
             style="fill:#000000"
             inkscape:connector-curvature="0" />
          <path
             id="path6492"
             d="m 340.44457,972.03369 c -11.90515,-12.57417 -14.54583,-32.16375 -8.4734,-48.07097 l 35.35534,35.35534 c -6.07243,15.90722 -3.43175,35.4968 8.4734,48.07094 z"
             style="fill:#000000"
             inkscape:connector-curvature="0" />
          <path
             id="path6494"
             d="m 331.97117,923.96272 c 6.41891,-16.16628 22.71378,-28.0741 40.22766,-28.44811 l 35.35534,35.35534 c -17.51388,0.37401 -33.80875,12.28183 -40.22766,28.44811 z"
             style="fill:#000000"
             inkscape:connector-curvature="0" />
          <path
             id="path6496"
             d="m 372.19883,895.51461 c 12.67041,-0.62773 26.2212,2.7631 35.37136,11.91327 l 35.35534,35.35534 c -9.15016,-9.15017 -22.70096,-12.541 -35.37136,-11.91327 z"
             style="fill:#000000"
             inkscape:connector-curvature="0" />
          <path
             id="path6498"
             d="m 407.57019,907.42788 c 0.42071,0.42071 0.83212,0.85359 1.23371,1.29882 l 35.35534,35.35534 c -0.40159,-0.44523 -0.813,-0.87811 -1.23371,-1.29882 z"
             style="fill:#000000"
             inkscape:connector-curvature="0" />
          <path
             id="path6500"
             d="m 408.8039,908.7267 c 9.07203,9.42403 11.99124,23.01178 11.54766,35.72644 l 35.35534,35.35534 c 0.44358,-12.71466 -2.47563,-26.30241 -11.54766,-35.72644 z"
             style="fill:#000000"
             inkscape:connector-curvature="0" />
          <path
             id="path6502"
             d="m 420.35156,944.45314 c 0,13.4648 0,26.92959 0,40.39439 l 35.35534,35.35537 c 0,-13.4648 0,-26.92962 0,-40.39442 z"
             style="fill:#000000"
             inkscape:connector-curvature="0" />
          <path
             id="path6504"
             d="m 420.35156,984.84753 c -10.95703,0 -21.91406,0 -32.87109,0 l 35.35534,35.35537 c 10.95703,0 21.91406,0 32.87109,0 z"
             style="fill:#000000"
             inkscape:connector-curvature="0" />
          <path
             id="path6506"
             d="m 387.48047,984.84753 c -0.0347,-14.09878 0.07,-28.20035 -0.0536,-42.29735 l 35.35534,35.35534 c 0.1236,14.097 0.0189,28.19858 0.0536,42.29738 z"
             style="fill:#000000"
             inkscape:connector-curvature="0" />
          <path
             id="path6508"
             d="m 387.42687,942.55018 c -0.0253,-3.72427 -1.57824,-7.62818 -4.22382,-10.27376 l 35.35534,35.35534 c 2.64558,2.64558 4.19854,6.54949 4.22382,10.27376 z"
             style="fill:#000000"
             inkscape:connector-curvature="0" />
          <path
             id="path6510"
             d="m 383.20305,932.27642 c -1.95913,-1.95914 -4.51744,-3.22822 -7.49825,-3.22329 l 35.35534,35.35534 c 2.98081,-0.005 5.53912,1.26415 7.49825,3.22329 z"
             style="fill:#000000"
             inkscape:connector-curvature="0" />
          <path
             id="path6512"
             d="m 375.7048,929.05313 c -8.0103,-0.70753 -15.05795,7.51195 -13.23475,15.33176 l 35.35534,35.35534 c -1.8232,-7.81981 5.22445,-16.03929 13.23475,-15.33176 z"
             style="fill:#000000"
             inkscape:connector-curvature="0" />
          <path
             id="path6514"
             d="m 362.47005,944.38489 c 0.32709,2.46086 1.50555,4.63377 3.18784,6.31606 l 35.35534,35.35534 c -1.68229,-1.68229 -2.86075,-3.8552 -3.18784,-6.31606 z"
             style="fill:#000000"
             inkscape:connector-curvature="0" />
          <path
             id="path6516"
             d="m 365.65789,950.70095 c 2.76654,2.76654 6.89566,4.20626 10.84171,3.41783 l 35.35534,35.35534 c -3.94605,0.78843 -8.07517,-0.65129 -10.84171,-3.41783 z"
             style="fill:#000000"
             inkscape:connector-curvature="0" />
          <path
             id="path6518"
             d="m 376.4996,954.11878 c 2.08554,-0.2815 4.0984,-1.03139 5.88317,-2.14234 l 35.35534,35.35534 c -1.78477,1.11095 -3.79763,1.86084 -5.88317,2.14234 z"
             style="fill:#000000"
             inkscape:connector-curvature="0" />
        </g>
        <path
           style="font-style:normal;font-variant:normal;font-weight:normal;font-stretch:normal;font-size:180px;font-family:'Bauhaus 93';-inkscape-font-specification:'Bauhaus 93, ';text-align:center;letter-spacing:15px;text-anchor:middle;fill:#000000"
           d="m 382.38281,951.97644 c 0,11.33789 0,22.67578 0,34.01367 -15.12938,2.7038 -31.65254,-2.34187 -41.93824,-13.95642 -11.90515,-12.57417 -14.54583,-32.16375 -8.4734,-48.07097 6.41891,-16.16628 22.71378,-28.0741 40.22766,-28.44811 13.25297,-0.65659 27.46915,3.08341 36.60507,13.21209 9.07203,9.42403 11.99124,23.01178 11.54766,35.72644 0,13.4648 0,26.92959 0,40.39439 -10.95703,0 -21.91406,0 -32.87109,0 -0.0347,-14.09878 0.07,-28.20035 -0.0536,-42.29735 -0.044,-6.48221 -4.71603,-13.50863 -11.72207,-13.49705 -8.0103,-0.70753 -15.05795,7.51195 -13.23475,15.33176 0.86499,6.50777 7.68397,11.00175 14.02955,9.73389 2.08554,-0.2815 4.0984,-1.03139 5.88317,-2.14234 z"
           id="path5580"
           inkscape:connector-curvature="0" />
      </g>
      <g
         id="g6521"
         style="fill:#000000">
        <g
           id="g6523"
           style="font-style:normal;font-variant:normal;font-weight:normal;font-stretch:normal;font-size:180px;font-family:'Bauhaus 93';-inkscape-font-specification:'Bauhaus 93, ';text-align:center;letter-spacing:15px;text-anchor:middle;fill:#000000">
          <path
             id="path6525"
             d="m 701.95312,864.87683 c 10.95703,0 21.91407,0 32.8711,0 l 35.35534,35.35534 c -10.95703,0 -21.91407,0 -32.8711,0 z"
             style="fill:#000000"
             inkscape:connector-curvature="0" />
          <path
             id="path6527"
             d="m 734.82422,864.87683 c -0.0592,25.58128 0.12004,51.16654 -0.0927,76.74525 l 35.35534,35.35534 c 0.21274,-25.57871 0.0335,-51.16397 0.0927,-76.74525 z"
             style="fill:#000000"
             inkscape:connector-curvature="0" />
          <path
             id="path6529"
             d="m 734.73152,941.62208 c -0.3751,15.22729 -7.83644,30.72648 -21.42952,38.33654 l 35.35534,35.35538 c 13.59308,-7.6101 21.05442,-23.10929 21.42952,-38.33658 z"
             style="fill:#000000"
             inkscape:connector-curvature="0" />
          <path
             id="path6531"
             d="m 713.302,979.95862 c -17.38478,10.70176 -41.82052,8.34745 -56.34742,-6.17945 l 35.35534,35.35533 c 14.5269,14.5269 38.96264,16.8812 56.34742,6.1795 z"
             style="fill:#000000"
             inkscape:connector-curvature="0" />
          <path
             id="path6533"
             d="m 656.95458,973.77917 c -0.11833,-0.11833 -0.23601,-0.23747 -0.35302,-0.35742 l 35.35534,35.35535 c 0.11701,0.1199 0.23469,0.2391 0.35302,0.3574 z"
             style="fill:#000000"
             inkscape:connector-curvature="0" />
          <path
             id="path6535"
             d="m 656.60156,973.42175 c -0.37102,-0.34315 -0.73444,-0.69277 -1.09026,-1.04858 l 35.35534,35.35533 c 0.35582,0.3558 0.71924,0.7054 1.09026,1.0486 z"
             style="fill:#000000"
             inkscape:connector-curvature="0" />
          <path
             id="path6537"
             d="m 655.5113,972.37317 c -15.61972,-15.61972 -16.57958,-43.18455 -2.12873,-59.91318 l 35.35534,35.35534 c -14.45085,16.72863 -13.49099,44.29346 2.12873,59.91317 z"
             style="fill:#000000"
             inkscape:connector-curvature="0" />
          <path
             id="path6539"
             d="m 653.38257,912.45999 c 9.06057,-11.47116 23.7557,-18.32693 38.41919,-16.86538 l 35.35534,35.35534 c -14.66349,-1.46155 -29.35862,5.39422 -38.41919,16.86538 z"
             style="fill:#000000"
             inkscape:connector-curvature="0" />
          <path
             id="path6541"
             d="m 691.80176,895.59461 c 2.01157,-0.13465 3.82935,-0.0546 4.74409,0.86011 l 35.35534,35.35533 c -0.91474,-0.91473 -2.73252,-0.99475 -4.74409,-0.8601 z"
             style="fill:#000000"
             inkscape:connector-curvature="0" />
          <path
             id="path6543"
             d="m 696.54585,896.45472 c 0.61858,0.61858 0.82419,1.61887 0.39751,3.19263 l 35.35534,35.35534 c 0.42668,-1.57376 0.22107,-2.57405 -0.39751,-3.19264 z"
             style="fill:#000000"
             inkscape:connector-curvature="0" />
          <path
             id="path6545"
             d="m 696.94336,899.64735 c 0,10.85123 0,21.70247 0,32.5537 l 35.35534,35.35534 c 0,-10.85123 0,-21.70247 0,-32.5537 z"
             style="fill:#000000"
             inkscape:connector-curvature="0" />
          <path
             id="path6547"
             d="m 696.94336,932.20105 c -5.19575,-4.89871 -14.1675,-3.86027 -18.09963,2.05513 l 35.35534,35.35534 c 3.93213,-5.9154 12.90388,-6.95384 18.09963,-2.05513 z"
             style="fill:#000000"
             inkscape:connector-curvature="0" />
          <path
             id="path6549"
             d="m 678.84373,934.25618 c -3.82797,4.89642 -2.81557,12.16139 1.37936,16.35631 l 35.35534,35.35534 c -4.19493,-4.19492 -5.20733,-11.4599 -1.37936,-16.35631 z"
             style="fill:#000000"
             inkscape:connector-curvature="0" />
          <path
             id="path6551"
             d="m 680.22309,950.61249 c 1.15973,1.15973 2.5627,2.08482 4.17388,2.66034 l 35.35534,35.35534 c -1.61118,-0.57552 -3.01415,-1.50061 -4.17388,-2.66034 z"
             style="fill:#000000"
             inkscape:connector-curvature="0" />
          <path
             id="path6553"
             d="m 684.39697,953.27283 c 5.99271,2.49213 14.11027,0.005 16.06064,-6.63154 l 35.35534,35.35534 c -1.95037,6.63654 -10.06793,9.12367 -16.06064,6.63154 z"
             style="fill:#000000"
             inkscape:connector-curvature="0" />
          <path
             id="path6555"
             d="m 700.45761,946.64129 c 2.3975,-7.34136 1.20367,-15.16895 1.49551,-22.75817 l 35.35534,35.35534 c -0.29184,7.58922 0.90199,15.41681 -1.49551,22.75817 z"
             style="fill:#000000"
             inkscape:connector-curvature="0" />
          <path
             id="path6557"
             d="m 701.95312,923.88312 c 0,-19.66876 0,-39.33753 0,-59.00629 l 35.35534,35.35534 c 0,19.66876 0,39.33753 0,59.00629 z"
             style="fill:#000000"
             inkscape:connector-curvature="0" />
        </g>
        <path
           style="font-style:normal;font-variant:normal;font-weight:normal;font-stretch:normal;font-size:180px;font-family:'Bauhaus 93';-inkscape-font-specification:'Bauhaus 93, ';text-align:center;letter-spacing:15px;text-anchor:middle;fill:#000000"
           d="m 701.95312,864.87683 c 10.95703,0 21.91407,0 32.8711,0 -0.0592,25.58128 0.12004,51.16654 -0.0927,76.74525 -0.3751,15.22729 -7.83644,30.72648 -21.42952,38.33654 -17.52639,10.78893 -42.21909,8.30823 -56.70044,-6.53687 -16.65825,-15.40683 -17.99903,-43.85205 -3.21899,-60.96176 9.06057,-11.47116 23.7557,-18.32693 38.41919,-16.86538 3.37187,-0.22571 6.19925,0.15177 5.1416,4.05274 0,10.85123 0,21.70247 0,32.5537 -5.19575,-4.89871 -14.1675,-3.86027 -18.09963,2.05513 -4.88625,6.25008 -1.88584,16.35937 5.55324,19.01665 5.99271,2.49213 14.11027,0.005 16.06064,-6.63154 2.3975,-7.34136 1.20367,-15.16895 1.49551,-22.75817 0,-19.66876 0,-39.33753 0,-59.00629 z"
           id="path5586"
           inkscape:connector-curvature="0" />
      </g>
      <g
         id="g6560"
         style="fill:#000000">
        <g
           id="g6562"
           style="font-style:normal;font-variant:normal;font-weight:normal;font-stretch:normal;font-size:180px;font-family:'Bauhaus 93';-inkscape-font-specification:'Bauhaus 93, ';text-align:center;letter-spacing:15px;text-anchor:middle;fill:#000000">
          <path
             id="path6564"
             d="m 575.85937,951.97644 c 0,11.33789 0,22.67578 0,34.01367 l 35.35534,35.35529 c 0,-11.3378 0,-22.67573 0,-34.01362 z"
             style="fill:#000000"
             inkscape:connector-curvature="0" />
          <path
             id="path6566"
             d="m 575.85937,985.99011 c -14.3339,2.56164 -29.91886,-1.8327 -40.26519,-12.17904 l 35.35534,35.35533 c 10.34633,10.3463 25.93129,14.7407 40.26519,12.179 z"
             style="fill:#000000"
             inkscape:connector-curvature="0" />
          <path
             id="path6568"
             d="m 535.59418,973.81107 c -0.57419,-0.57418 -1.13224,-1.1667 -1.67305,-1.77738 l 35.35534,35.35531 c 0.54081,0.6107 1.09886,1.2032 1.67305,1.7774 z"
             style="fill:#000000"
             inkscape:connector-curvature="0" />
          <path
             id="path6570"
             d="m 533.92113,972.03369 c -11.90515,-12.57417 -14.54583,-32.16375 -8.4734,-48.07097 l 35.35534,35.35534 c -6.07243,15.90722 -3.43175,35.4968 8.4734,48.07094 z"
             style="fill:#000000"
             inkscape:connector-curvature="0" />
          <path
             id="path6572"
             d="m 525.44773,923.96272 c 6.41891,-16.16628 22.71378,-28.0741 40.22766,-28.44811 l 35.35534,35.35534 c -17.51388,0.37401 -33.80875,12.28183 -40.22766,28.44811 z"
             style="fill:#000000"
             inkscape:connector-curvature="0" />
          <path
             id="path6574"
             d="m 565.67539,895.51461 c 12.67041,-0.62773 26.22121,2.76311 35.37138,11.91327 l 35.35533,35.35534 c -9.15016,-9.15017 -22.70096,-12.541 -35.37137,-11.91327 z"
             style="fill:#000000"
             inkscape:connector-curvature="0" />
          <path
             id="path6576"
             d="m 601.04677,907.42788 c 0.4207,0.42071 0.83211,0.85359 1.2337,1.29882 l 35.35534,35.35534 c -0.40159,-0.44523 -0.813,-0.87811 -1.23371,-1.29882 z"
             style="fill:#000000"
             inkscape:connector-curvature="0" />
          <path
             id="path6578"
             d="m 602.28047,908.7267 c 9.07203,9.42403 11.99123,23.01178 11.54765,35.72644 l 35.35534,35.35534 c 0.44358,-12.71466 -2.47562,-26.30241 -11.54765,-35.72644 z"
             style="fill:#000000"
             inkscape:connector-curvature="0" />
          <path
             id="path6580"
             d="m 613.82812,944.45314 c 0,13.4648 0,26.92959 0,40.39439 l 35.35534,35.35537 c 0,-13.4648 0,-26.92962 0,-40.39442 z"
             style="fill:#000000"
             inkscape:connector-curvature="0" />
          <path
             id="path6582"
             d="m 613.82812,984.84753 c -10.95703,0 -21.91406,0 -32.87109,0 l 35.35534,35.35537 c 10.95703,0 21.91406,0 32.87109,0 z"
             style="fill:#000000"
             inkscape:connector-curvature="0" />
          <path
             id="path6584"
             d="m 580.95703,984.84753 c -0.0347,-14.09878 0.07,-28.20035 -0.0536,-42.29735 l 35.35534,35.35534 c 0.1236,14.097 0.0189,28.19858 0.0536,42.29738 z"
             style="fill:#000000"
             inkscape:connector-curvature="0" />
          <path
             id="path6586"
             d="m 580.90343,942.55018 c -0.0253,-3.72427 -1.57824,-7.62819 -4.22382,-10.27376 l 35.35534,35.35533 c 2.64558,2.64558 4.19854,6.5495 4.22382,10.27377 z"
             style="fill:#000000"
             inkscape:connector-curvature="0" />
          <path
             id="path6588"
             d="m 576.67961,932.27642 c -1.95913,-1.95914 -4.51744,-3.22822 -7.49825,-3.22329 l 35.35534,35.35534 c 2.98081,-0.005 5.53912,1.26415 7.49825,3.22328 z"
             style="fill:#000000"
             inkscape:connector-curvature="0" />
          <path
             id="path6590"
             d="m 569.18136,929.05313 c -8.0103,-0.70753 -15.05795,7.51195 -13.23475,15.33176 l 35.35534,35.35534 c -1.8232,-7.81981 5.22445,-16.03929 13.23475,-15.33176 z"
             style="fill:#000000"
             inkscape:connector-curvature="0" />
          <path
             id="path6592"
             d="m 555.94661,944.38489 c 0.32709,2.46086 1.50555,4.63376 3.18784,6.31605 l 35.35534,35.35534 c -1.68229,-1.68229 -2.86075,-3.85519 -3.18784,-6.31605 z"
             style="fill:#000000"
             inkscape:connector-curvature="0" />
          <path
             id="path6594"
             d="m 559.13445,950.70094 c 2.76655,2.76655 6.89566,4.20627 10.84171,3.41784 l 35.35534,35.35534 c -3.94605,0.78843 -8.07516,-0.65129 -10.84171,-3.41784 z"
             style="fill:#000000"
             inkscape:connector-curvature="0" />
          <path
             id="path6596"
             d="m 569.97616,954.11878 c 2.08554,-0.2815 4.0984,-1.03139 5.88317,-2.14234 l 35.35534,35.35534 c -1.78477,1.11095 -3.79763,1.86084 -5.88317,2.14234 z"
             style="fill:#000000"
             inkscape:connector-curvature="0" />
        </g>
        <path
           style="font-style:normal;font-variant:normal;font-weight:normal;font-stretch:normal;font-size:180px;font-family:'Bauhaus 93';-inkscape-font-specification:'Bauhaus 93, ';text-align:center;letter-spacing:15px;text-anchor:middle;fill:#000000"
           d="m 575.85937,951.97644 c 0,11.33789 0,22.67578 0,34.01367 -15.12938,2.7038 -31.65254,-2.34187 -41.93824,-13.95642 -11.90515,-12.57417 -14.54583,-32.16375 -8.4734,-48.07097 6.41891,-16.16628 22.71378,-28.0741 40.22766,-28.44811 13.25297,-0.65659 27.46916,3.08341 36.60508,13.21209 9.07203,9.42403 11.99123,23.01178 11.54765,35.72644 0,13.4648 0,26.92959 0,40.39439 -10.95703,0 -21.91406,0 -32.87109,0 -0.0347,-14.09878 0.07,-28.20035 -0.0536,-42.29735 -0.044,-6.48221 -4.71602,-13.50863 -11.72207,-13.49705 -8.0103,-0.70753 -15.05795,7.51195 -13.23475,15.33176 0.865,6.50776 7.68397,11.00175 14.02955,9.73389 2.08554,-0.2815 4.0984,-1.03139 5.88317,-2.14234 z"
           id="path5584"
           inkscape:connector-curvature="0" />
      </g>
    </g>
    <text
       sodipodi:linespacing="125%"
       id="text4686"
       y="759.84753"
       x="546.5918"
       style="font-style:normal;font-weight:normal;font-size:40px;line-height:125%;font-family:sans-serif;letter-spacing:20px;word-spacing:0px;fill:#ffffff;fill-opacity:1;stroke:none;stroke-width:1px;stroke-linecap:butt;stroke-linejoin:miter;stroke-opacity:1"
       xml:space="preserve"><tspan
         style="font-style:normal;font-variant:normal;font-weight:normal;font-stretch:normal;font-size:180px;font-family:'Bauhaus 93';-inkscape-font-specification:'Bauhaus 93, ';text-align:center;letter-spacing:15px;text-anchor:middle;fill:#ffffff"
         y="759.84753"
         x="554.0918"
         id="tspan4688"
         sodipodi:role="line">Party</tspan><tspan
         style="font-style:normal;font-variant:normal;font-weight:normal;font-stretch:normal;font-size:180px;font-family:'Bauhaus 93';-inkscape-font-specification:'Bauhaus 93, ';text-align:center;letter-spacing:15px;text-anchor:middle;fill:#ffffff"
         id="tspan4690"
         y="984.84753"
         x="554.0918"
         sodipodi:role="line">Charades!</tspan></text>
  </g>
</svg>
